<svg width="375" height="211" viewBox="0 0 375 211" fill="none" xmlns="http://www.w3.org/2000/svg">
<g clip-path="url(#clip0_2529_11919)">
<rect width="375" height="211" fill="white"/>
<g clip-path="url(#clip1_2529_11919)">
<rect width="375" height="812" transform="translate(0 -121)" fill="#F4FFFA"/>
<path d="M133.792 70.6279V79.3242H132.18V75.8076H130.644V74.5127H132.18V70.6279H133.792ZM130.885 71.834V73.1162H124.081V71.834H126.696V70.6025H128.295V71.834H130.885ZM127.496 73.5225C129.083 73.5225 130.263 74.4365 130.263 75.7568C130.263 77.0645 129.083 77.9658 127.496 77.9658C125.883 77.9658 124.715 77.0645 124.715 75.7568C124.715 74.4365 125.883 73.5225 127.496 73.5225ZM127.496 74.7539C126.759 74.7666 126.264 75.1348 126.277 75.7568C126.264 76.3916 126.759 76.7344 127.496 76.7344C128.207 76.7344 128.714 76.3916 128.714 75.7568C128.714 75.1348 128.207 74.7666 127.496 74.7539ZM134.034 80.6699V81.9648H126.099V78.5879H127.737V80.6699H134.034ZM149.573 76.1123V77.3945H139.036V76.1123H143.492V75.2617C141.403 75.103 140.089 74.2969 140.089 73.0527C140.089 71.6436 141.752 70.8057 144.304 70.8057C146.869 70.8057 148.494 71.6436 148.506 73.0527C148.494 74.3032 147.192 75.1157 145.079 75.2744V76.1123H149.573ZM145.117 78.1689C145.117 79.4131 146.323 80.5684 148.862 80.873L148.252 82.1172C146.367 81.8569 145.009 81.1206 144.292 80.0732C143.581 81.1206 142.229 81.8569 140.356 82.1172L139.747 80.873C142.26 80.5684 143.466 79.4131 143.479 78.1689V77.9531H145.117V78.1689ZM144.304 72.0498C142.692 72.0371 141.765 72.3799 141.778 73.0527C141.765 73.7129 142.692 74.0303 144.304 74.0303C145.904 74.0303 146.831 73.7129 146.831 73.0527C146.831 72.3799 145.904 72.0371 144.304 72.0498ZM155.54 71.1992C157.977 71.2119 159.881 72.5195 159.894 74.5254C159.881 76.5439 157.977 77.8643 155.54 77.8516C153.089 77.8643 151.198 76.5439 151.198 74.5254C151.198 72.5195 153.089 71.2119 155.54 71.1992ZM155.54 72.5195C153.94 72.5068 152.772 73.2812 152.772 74.5254C152.772 75.7822 153.94 76.5312 155.54 76.5312C157.139 76.5312 158.282 75.7822 158.294 74.5254C158.282 73.2812 157.139 72.5068 155.54 72.5195ZM160.846 79.4512V80.7588H150.271V79.4512H160.846ZM172.082 79.5527V80.8857H161.506V79.5527H165.962V77.8135H162.725V73.9287H169.263V72.6592H162.712V71.3643H170.863V75.1982H164.35V76.4932H171.129V77.8135H167.575V79.5527H172.082ZM180.968 73.7637C180.968 75.6299 181.92 77.623 183.863 78.4355L182.987 79.7051C181.622 79.1274 180.683 77.9785 180.168 76.5693C179.642 78.0991 178.683 79.3687 177.325 79.9971L176.398 78.7148C178.315 77.8643 179.305 75.7188 179.305 73.7637V73.0527H176.855V71.7324H183.38V73.0527H180.968V73.7637ZM186.161 70.6152V82.168H184.523V70.6152H186.161ZM197.028 71.2881V72.3291C197.028 73.4082 197.028 74.5889 196.736 76.2012H198.259V77.5088H193.752V82.1807H192.127V77.5088H187.722V76.2012H195.098C195.39 74.7095 195.416 73.5796 195.416 72.583H188.928V71.2881H197.028ZM209.52 75.7949V77.001H198.945V75.7949H209.52ZM208.25 77.5723V80.3018H201.776V80.9619H208.593V82.0664H200.164V79.2734H206.651V78.6895H200.151V77.5723H208.25ZM208.238 70.8184V73.5352H201.877V74.1572H208.441V75.249H200.265V72.5068H206.613V71.9229H200.24V70.8184H208.238ZM218.419 73.7637C218.419 75.6299 219.372 77.623 221.314 78.4355L220.438 79.7051C219.073 79.1274 218.134 77.9785 217.62 76.5693C217.093 78.0991 216.134 79.3687 214.776 79.9971L213.849 78.7148C215.766 77.8643 216.756 75.7188 216.756 73.7637V73.0527H214.306V71.7324H220.832V73.0527H218.419V73.7637ZM223.612 70.6152V82.168H221.974V70.6152H223.612ZM231.102 71.7197C231.102 72.3862 231.064 73.0337 230.988 73.6621H233.298V70.6025H234.911V82.168H233.298V78.1055H230.569V76.8232H233.298V74.9824H230.721C230.137 77.1216 228.792 78.9561 225.973 80.416L225.084 79.1973C226.913 78.2324 228.049 77.1597 228.715 75.8838L225.364 76.1885L225.148 74.8174L229.223 74.5762C229.356 74.0874 229.439 73.5669 229.49 73.0146H225.77V71.7197H231.102ZM246.984 79.4893V80.8223H236.409V79.4893H238.77V76.6582C237.875 76.125 237.335 75.3062 237.335 74.2842C237.335 72.418 239.164 71.1738 241.677 71.1738C244.178 71.1738 246.019 72.418 246.032 74.2842C246.025 75.2808 245.499 76.0933 244.635 76.6328V79.4893H246.984ZM241.677 72.4561C240.027 72.4561 238.935 73.1162 238.935 74.2842C238.935 75.4141 240.027 76.1123 241.677 76.1123C243.315 76.1123 244.419 75.4141 244.432 74.2842C244.419 73.1162 243.315 72.4561 241.677 72.4561ZM240.37 79.4893H242.998V77.2422C242.585 77.3247 242.141 77.3691 241.677 77.3691C241.214 77.3691 240.776 77.3311 240.37 77.2422V79.4893ZM250.272 71.8086L250.107 78.2451H248.482L248.317 71.8086H250.272ZM249.307 81.1143C248.71 81.1143 248.228 80.6318 248.241 80.0479C248.228 79.4639 248.71 78.9941 249.307 78.9941C249.866 78.9941 250.361 79.4639 250.361 80.0479C250.361 80.6318 249.866 81.1143 249.307 81.1143Z" fill="#14C475"/>
<path d="M132.466 136.72C130.106 136.8 125.706 136.52 123.386 135.68C119.706 134.36 118.306 131.96 117.906 129C117.746 127.76 117.746 127.08 117.866 126.16C118.066 124.6 119.266 123.52 121.346 123.52C123.226 123.52 124.826 124.2 124.826 126.32C124.826 127.32 124.826 128.32 125.306 128.92C126.226 130.12 127.826 130.4 132.146 130.32C136.226 130.24 139.946 129.48 141.946 128.96C143.746 128.48 145.346 128.88 145.946 131C146.466 132.84 146.106 134.28 143.986 135C141.466 135.84 136.706 136.56 132.466 136.72ZM124.706 121.56C122.506 121.56 118.186 121.4 115.426 120.88C113.146 120.44 112.666 118.76 113.026 116.96C113.386 115.16 114.666 114.48 116.266 114.68L116.546 114.72V107.36H115.306C113.426 107.36 112.666 105.76 112.666 104.2C112.666 102.64 113.426 101.04 115.306 101.04H134.426C136.306 101.04 137.066 102.64 137.066 104.2C137.066 105.76 136.306 107.36 134.426 107.36H133.266V114.76L133.946 114.68C135.546 114.48 136.826 115.16 137.186 116.96C137.546 118.76 137.066 120.44 134.786 120.88C132.026 121.4 126.946 121.56 124.706 121.56ZM141.546 125.2C139.666 125.2 138.066 124.24 138.066 122.32V102.52C138.066 100.6 139.626 99.68 141.546 99.68C143.506 99.68 145.066 100.6 145.066 102.52V107.84H146.986C149.106 107.84 149.866 109.28 149.866 111C149.866 112.8 149.106 114.24 146.986 114.24H145.066V122.32C145.066 124.28 143.506 125.2 141.546 125.2ZM123.346 115.2L124.706 115.24L126.466 115.2V107.36H123.346V115.2ZM160.163 131.76C155.123 131.04 152.363 128.2 151.683 123.72C150.923 118.84 152.403 112.52 154.803 108.44H153.923C152.043 108.44 151.283 106.8 151.283 105.24C151.283 103.68 152.043 102.04 153.923 102.04H169.803C171.883 102.04 172.643 103.68 172.643 105.24C172.643 106.8 171.883 108.44 169.803 108.44H161.443C159.243 112.56 158.083 118.92 158.843 122.24C159.283 124.2 160.243 125.2 162.443 125.6C164.443 125.96 167.043 125.6 169.883 124.84C171.803 124.32 173.123 125.08 173.643 126.84C174.163 128.6 173.643 130.2 171.683 130.88C168.243 132.04 164.683 132.4 160.163 131.76ZM179.163 137.12C177.283 137.12 175.683 136.16 175.683 134.24V102.52C175.683 100.6 177.243 99.68 179.163 99.68C181.123 99.68 182.683 100.6 182.683 102.52V112.44H184.603C186.723 112.44 187.483 113.88 187.483 115.6C187.483 117.4 186.723 118.84 184.603 118.84H182.683V134.24C182.683 136.2 181.123 137.12 179.163 137.12ZM197.9 132.12C192.82 132.12 189.46 128.08 189.46 122.32C189.46 116.52 192.82 112.44 197.9 112.44C200.98 112.44 203.42 113.96 204.86 116.44C205.02 114.84 205.78 113.84 207.06 113.84H208.46V102.8C208.46 101 209.5 99.92 211.54 99.92C213.46 99.92 214.7 100.88 214.7 102.76V134C214.7 135.84 213.58 136.92 211.54 136.92C209.54 136.92 208.46 135.84 208.46 134V120.24H207.06C206.7 120.24 206.38 120.16 206.1 120C206.22 120.76 206.3 121.52 206.3 122.32C206.3 128.08 202.94 132.12 197.9 132.12ZM197.94 125.88C199.14 125.88 199.9 124.52 199.9 122.32C199.9 120.08 199.14 118.68 197.94 118.68C196.66 118.68 195.86 120.08 195.86 122.32C195.86 124.52 196.66 125.88 197.94 125.88ZM190.94 111C189.06 111 188.3 109.4 188.3 107.84C188.3 106.28 189.06 104.68 190.94 104.68H194.7V102.68C194.7 100.8 196.06 99.96 197.86 99.96C199.7 99.96 201.1 100.8 201.1 102.68V104.68H204.58C206.46 104.68 207.22 106.28 207.22 107.84C207.22 109.4 206.46 111 204.58 111H190.94ZM219.86 137.12C217.98 137.12 216.7 136.12 216.7 134.2V102.56C216.7 100.72 217.94 99.68 219.86 99.68C221.9 99.68 223.1 100.76 223.1 102.56V134.2C223.1 136.04 221.82 137.12 219.86 137.12ZM238.157 132.16C231.397 132.16 227.117 126.24 227.117 116.76C227.117 107.28 231.397 101.36 238.157 101.36C244.917 101.36 249.197 107.28 249.197 116.76C249.197 126.24 244.917 132.16 238.157 132.16ZM238.157 125.76C240.637 125.76 242.197 122.28 242.197 116.76C242.197 111.24 240.637 107.76 238.157 107.76C235.677 107.76 234.117 111.24 234.117 116.76C234.117 122.28 235.677 125.76 238.157 125.76ZM256.397 137.12C254.517 137.12 252.917 136.16 252.917 134.24V102.52C252.917 100.6 254.477 99.68 256.397 99.68C258.357 99.68 259.917 100.6 259.917 102.52V134.24C259.917 136.2 258.357 137.12 256.397 137.12Z" fill="#14C475"/>
</g>
</g>
<defs>
<clipPath id="clip0_2529_11919">
<rect width="375" height="211" fill="white"/>
</clipPath>
<clipPath id="clip1_2529_11919">
<rect width="375" height="812" fill="white" transform="translate(0 -121)"/>
</clipPath>
</defs>
</svg>
