<svg width="364" height="364" viewBox="0 0 364 364" fill="none" xmlns="http://www.w3.org/2000/svg">
<rect width="364" height="364" fill="#262423"/>
<g clip-path="url(#clip0_83_466)">
<path d="M316.643 175.412L321.718 167.035L318.898 158H126.404L125.464 164.588L123.772 158H78.9386L77.4347 164.212H73.6751L72.8291 167.6L67.7536 158H53.185L42 193.765L50.8352 206H65.4978L67.2837 199.224H73.2051L77.1527 206H122.175L123.208 198.188L125.746 206H276.32L282.43 193.388H287.975L293.051 183.318L298.502 206H313.635L322 193.765L316.643 175.412ZM186.559 183.882V179.647H199.529L199.623 183.882H186.559Z" fill="black"/>
<path d="M52.1511 203.553L44.8198 193.388H56.7567L63.5241 203.553H52.1511Z" fill="#3D3938"/>
<path d="M100.463 193.388H88.5259L93.6954 203.553H104.974L100.463 193.388Z" fill="#3D3938"/>
<path d="M104.504 193.388L108.734 203.553H120.013L116.441 193.388H104.504Z" fill="#3D3938"/>
<path d="M140.315 193.388L142.665 203.553H169.076L168.136 193.388H140.315Z" fill="#3D3938"/>
<path d="M199.999 193.388L199.247 203.553H172.836L172.084 193.388H199.999Z" fill="#3D3938"/>
<path d="M203.947 193.388H215.884L214.286 203.553H203.007L203.947 193.388Z" fill="#3D3938"/>
<path d="M219.832 193.388L218.046 203.553H229.419L231.769 193.388H219.832Z" fill="#3D3938"/>
<path d="M235.81 193.388L233.178 203.553H244.457L247.747 193.388H235.81Z" fill="#3D3938"/>
<path d="M251.694 193.388L248.217 203.553H259.59L263.631 193.388H251.694Z" fill="#3D3938"/>
<path d="M267.579 193.388L263.35 203.553H274.629L279.516 193.388H267.579Z" fill="#3D3938"/>
<path d="M307.431 193.388L301.04 203.553H312.319L319.368 193.388H307.431Z" fill="#3D3938"/>
<path d="M124.336 193.388L127.626 203.553H138.905L136.273 193.388H124.336Z" fill="#3D3938"/>
<path d="M72.6411 193.388H84.578L89.8415 203.553H78.5626L72.6411 193.388Z" fill="#3D3938"/>
<path d="M76.0249 179.647H72.1713L70.3855 186.423H62.5842L64.464 179.647H60.6104L56.6627 193.388H44.8198L54.9709 160.447H66.0619L64.276 166.659H68.0357L66.3438 173.059H73.9571L75.649 166.659H79.4086L80.9125 160.447H92.0034L84.6721 193.294H72.6412L76.0249 179.647Z" fill="#D0C5C0"/>
<path d="M95.5752 160.447H106.666L100.463 193.294H88.5259L95.5752 160.447Z" fill="#D0C5C0"/>
<path d="M143.605 160.447H169.452L169.17 166.659H154.226L153.756 173.059H168.888L168.606 179.647H153.192L152.722 186.423H168.418L168.136 193.388H140.315L143.605 160.447Z" fill="#D0C5C0"/>
<path d="M173.118 160.447H198.966L199.154 166.659H184.209L184.115 186.329H199.812L200 193.294H172.178L173.118 160.447Z" fill="#D0C5C0"/>
<path d="M218.798 179.647H214.944L215.884 193.388H203.947L202.631 160.541H228.479L229.701 173.059H225.941L226.223 176.353H230.077L231.769 193.388H219.832L218.798 179.647ZM214.098 166.659L214.474 173.059H218.234L217.764 166.659H214.098Z" fill="#D0C5C0"/>
<path d="M261.751 160.447H287.599L289.103 166.659H274.158L275.474 173.059H290.701L292.299 179.647H276.884L279.704 193.388H267.579L261.751 160.447Z" fill="#D0C5C0"/>
<path d="M300.288 166.659H292.769L291.265 160.447H317.113L318.993 166.659H311.473L319.275 193.294H307.338L300.288 166.659Z" fill="#D0C5C0"/>
<path d="M125.746 182.941H121.893L122.833 176.259H118.979L116.347 193.294H104.504L110.426 160.447H121.517L120.577 166.659H124.337L123.397 173.059H127.156L128.848 160.541H139.939L136.367 193.388H124.337L125.746 182.941Z" fill="#D0C5C0"/>
<path d="M257.992 160.447H232.145L235.716 193.294H247.653L246.243 182.941H250.097L251.601 193.294H263.538L257.992 160.447ZM249.345 172.494H251.225L252.165 178.518H249.627L249.345 176.353H245.491L245.773 178.518H243.142L242.39 172.494H244.269L244.081 170.894H239.664L239.1 166.659H244.081L244.551 170.329H248.311L247.841 166.659H252.823L253.481 170.894H249.063L249.345 172.494Z" fill="#D0C5C0"/>
</g>
<defs>
<clipPath id="clip0_83_466">
<rect width="280" height="48" fill="white" transform="translate(42 158)"/>
</clipPath>
</defs>
</svg>
