<svg width="60" height="60" viewBox="0 0 60 60" fill="none" xmlns="http://www.w3.org/2000/svg">
<g clip-path="url(#clip0_2464_11936)">
<rect width="60" height="60" fill="#F5F7FB"/>
<circle cx="18.751" cy="40" r="5" fill="#14C475"/>
<circle cx="41.251" cy="40" r="5" fill="#14C475"/>
<path d="M51.252 25C51.252 26.25 50.002 27.5 48.752 27.5H33.752C32.502 27.5 31.252 26.25 31.252 25V18.75C31.252 17.5 32.502 16.25 33.752 16.25H48.752C50.002 16.25 51.252 17.5 51.252 18.75V25Z" fill="#1E2124"/>
<path d="M51.252 38.75C51.252 40 50.002 41.25 48.752 41.25H33.752C32.502 41.25 31.252 40 31.252 38.75V32.5C31.252 31.25 32.502 30 33.752 30H48.752C50.002 30 51.252 31.25 51.252 32.5V38.75Z" fill="#14C475"/>
<path d="M23.752 16.25C26.2519 16.25 28.7519 18.75 28.752 21.25V38.75C28.752 40 27.502 41.25 26.252 41.25H11.252C10.002 41.2499 8.75195 40 8.75195 38.75V21.25C8.75199 18.75 11.252 16.25 15.002 16.25H23.752ZM15.002 20C13.1271 20 12.502 20.6251 12.502 22.5V25C12.502 26.875 13.127 27.5 15.002 27.5H22.502C24.377 27.5 25.002 26.875 25.002 25V22.5C25.0019 20.625 24.3769 20 22.502 20H15.002Z" fill="#14C475"/>
<rect x="12.499" y="28.75" width="12.5" height="2.5" rx="1.25" fill="#056E3F"/>
</g>
<defs>
<clipPath id="clip0_2464_11936">
<rect width="60" height="60" fill="white"/>
</clipPath>
</defs>
</svg>
