<svg width="500" height="500" viewBox="0 0 500 500" fill="none" xmlns="http://www.w3.org/2000/svg">
<rect width="500" height="500" fill="#FFF9E8"/>
<path d="M187.465 336.587L187.09 290.392L308.709 289.404L309.081 335.263C309.385 372.723 286.729 396.258 248.765 396.566C210.802 396.874 187.766 373.71 187.465 336.587ZM214.562 322.087L214.669 335.19C214.821 354.004 222.802 364.522 248.504 364.314C274.205 364.105 282.014 353.458 281.855 333.804L281.755 321.542L214.562 322.087Z" fill="#2F4926"/>
<path d="M100.817 255.165L187.336 229.088L187.33 228.08L100.49 203.09L100.264 166.973L222.137 206.527L222.41 250.035L101.043 291.281L100.817 255.165Z" fill="#416339"/>
<path d="M115.093 123.717L230.355 162.534L220.168 192.783L104.906 153.965L115.093 123.717Z" fill="#416036"/>
<path d="M399.168 255.167L312.648 229.09L312.654 228.082L399.494 203.092L399.721 166.975L277.847 206.529L277.575 250.037L398.941 291.283L399.168 255.167Z" fill="#416339"/>
<path d="M384.891 123.718L269.629 162.535L279.816 192.784L395.078 153.966L384.891 123.718Z" fill="#416036"/>
</svg>
